<svg xmlns="http://www.w3.org/2000/svg" width="800" height="200" viewbox="0 0 40 10">
 <g>
 <rect fill="#abc" x="0" y="0" width="800" height="200" />
 <path id="interp1_path" style="fill:none; stroke: #000; stroke-linecap:round; stroke-linejoin: round; stroke-width: 4;"
   d="
M138.64,139C138.64,139,138.64,139,138.64,139
M138.64,139C163.03,139,187.42,139,211.81,139
M211.81,82C256.03,82,300.26,82,344.48,82
M344.48,139C366.34,139,388.21,139,410.07,139
M410.07,56C426.43,56,442.79,56,459.15,56
M459.15,100C487.63,100,516.11,100,544.60,100
M544.60,125C560.05,125,575.50,125,590.96,125
M590.96,154C621.31,154,651.67,154,682.02,154
M682.02,158C695.37,158,708.72,158,722.07,158
M722.07,72C735.43,72,748.79,72,762.16,72"
 >
  <animate attributeName="d" dur="200ms" begin="t_4b.end; 0s" id="t_0a" fill="freeze"
      to="
M0.00,139C46.21,139,92.43,139,138.64,139
M138.64,82C163.03,82,187.42,82,211.81,82
M211.81,139C256.03,139,300.26,139,344.48,139
M344.48,56C366.34,56,388.21,56,410.07,56
M410.07,100C426.43,100,442.79,100,459.15,100
M459.15,125C487.63,125,516.11,125,544.60,125
M544.60,154C560.05,154,575.50,154,590.96,154
M590.96,158C621.31,158,651.67,158,682.02,158
M682.02,72C695.37,72,708.72,72,722.07,72
M722.07,116C735.43,116,748.79,116,762.16,116" />
  <animate dur="800ms" begin="t_0a.end" id="t_0b" />
  <animate attributeName="d" dur="200ms" begin="t_0b.end" id="t_1a" fill="freeze"
      to="
M0.00,139C58.41,139,116.82,139,175.23,139
M175.23,82C209.53,82,243.84,82,278.15,82
M278.15,139C311.19,139,344.23,139,377.27,139
M377.27,56C396.39,56,415.50,56,434.61,56
M434.61,100C457.03,100,479.45,100,501.87,100
M501.87,125C523.84,125,545.81,125,567.78,125
M567.78,154C590.68,154,613.58,154,636.49,154
M636.49,158C658.34,158,680.19,158,702.04,158
M702.04,72C715.40,72,728.76,72,742.11,72
M742.11,116C761.41,116,780.70,116,800.00,116" />
  <animate dur="800ms" begin="t_1a.end" id="t_1b" />
  <animate attributeName="d" dur="200ms" begin="t_1b.end" id="t_2a" fill="freeze"
      to="
M138.64,139C138.64,139,138.64,139,138.64,139
M138.64,139C163.03,120,187.42,101,211.81,82
M211.81,82C256.03,101,300.26,120,344.48,139
M344.48,139C366.34,112,388.21,84,410.07,56
M410.07,56C426.43,71,442.79,85,459.15,100
M459.15,100C487.63,108,516.11,117,544.60,125
M544.60,125C560.05,135,575.50,144,590.96,154
M590.96,154C621.31,155,651.67,157,682.02,158
M682.02,158C695.37,129,708.72,101,722.07,72
M722.07,72C735.43,87,748.79,101,762.16,116" />
  <animate dur="800ms" begin="t_2a.end" id="t_2b" />
  <animate attributeName="d" dur="200ms" begin="t_2b.end" id="t_3a" fill="freeze"
      to="
M138.64,139C138.64,139,138.64,139,138.64,139
M138.64,139C163.03,110,187.42,80,211.81,82
M211.81,82C256.03,84,300.26,185,344.48,139
M344.48,139C366.34,117,388.21,58,410.07,56
M410.07,56C426.43,54,442.79,84,459.15,100
M459.15,100C487.63,129,516.11,116,544.60,125
M544.60,125C560.05,129,575.50,140,590.96,154
M590.96,154C621.31,181,651.67,221,682.02,158
M682.02,158C695.37,130,708.72,83,722.07,72
M722.07,72C735.43,62,748.79,89,762.16,116" />
  <animate dur="800ms" begin="t_3a.end" id="t_3b" />
  <animate attributeName="d" dur="200ms" begin="t_3b.end" id="t_4a" fill="freeze"
      to="
M138.64,139C138.64,139,138.64,139,138.64,139
M138.64,139C163.03,139,187.42,139,211.81,139
M211.81,82C256.03,82,300.26,82,344.48,82
M344.48,139C366.34,139,388.21,139,410.07,139
M410.07,56C426.43,56,442.79,56,459.15,56
M459.15,100C487.63,100,516.11,100,544.60,100
M544.60,125C560.05,125,575.50,125,590.96,125
M590.96,154C621.31,154,651.67,154,682.02,154
M682.02,158C695.37,158,708.72,158,722.07,158
M722.07,72C735.43,72,748.79,72,762.16,72" />
  <animate dur="800ms" begin="t_4a.end" id="t_4b" />
 </path>
 <circle fill="#000" r="10" cx="138.63789367260233" cy="138.71308183217957" />
 <circle fill="#000" r="10" cx="211.81295934287266" cy="81.62056234831792" />
 <circle fill="#000" r="10" cx="344.4778589593394" cy="139.43407109870944" />
 <circle fill="#000" r="10" cx="410.06970543624584" cy="55.74938312823858" />
 <circle fill="#000" r="10" cx="459.15210948811955" cy="100.17279806935719" />
 <circle fill="#000" r="10" cx="544.5953961237768" cy="124.84758493141273" />
 <circle fill="#000" r="10" cx="590.9572097955939" cy="153.94652997819645" />
 <circle fill="#000" r="10" cx="682.0209102566726" cy="157.8021155304514" />
 <circle fill="#000" r="10" cx="722.065994051791" cy="72.18044711200702" />
 <circle fill="#000" r="10" cx="762.1578102116061" cy="115.56592636891669" />
</g></svg>