<svg xmlns="http://www.w3.org/2000/svg" width="800" height="200" viewbox="0 0 40 10">
 <g >
 <rect fill="#abc" x="0" y="0" width="800" height="200" />

    <path id="interp1_path" style="fill:none; stroke: red; stroke-linecap:round; stroke-linejoin: round; stroke-width: 4; opacity: 50%;"
    d="
M44.93,89C44.93,89,44.93,89,44.93,89
M44.93,89C59.96,80,74.99,70,90.02,80
M90.02,80C104.92,90,119.81,120,134.71,118
M134.71,118C148.88,115,163.05,84,177.21,61
M177.21,61C236.13,-33,295.05,27,353.97,44
M353.97,44C393.02,55,432.08,47,471.13,45
M471.13,45C487.95,43,504.77,43,521.59,44
M521.59,44C549.50,46,577.40,52,605.31,81
M605.31,81C619.37,96,633.42,117,647.48,131
M647.48,131C683.55,167,719.62,161,755.69,155"
    />

    <path id="interp1_path" style="fill:none; stroke: green; stroke-linecap:round; stroke-linejoin: round; stroke-width: 4; opacity: 50%;"
    d="
M44.93,89C44.93,89,44.93,89,44.93,89
M44.93,89C59.96,83,74.99,72,90.02,80
M90.02,80C104.92,89,119.81,122,134.71,118
M134.71,118C148.88,114,163.05,83,177.21,61
M177.21,61C236.13,-32,295.05,38,353.97,44
M353.97,44C393.02,48,432.08,46,471.13,45
M471.13,45C487.95,44,504.77,42,521.59,44
M521.59,44C549.50,48,577.40,48,605.31,81
M605.31,81C619.37,98,633.42,115,647.48,131
M647.48,131C683.55,172,719.62,153,755.69,155"
    />

    <path id="interp1_path" style="fill:none; stroke: #00a; stroke-linecap:round; stroke-linejoin: round; stroke-width: 4; opacity: 50%;"
    d="
M44.93,89C44.93,89,44.93,89,44.93,89
M44.93,89C59.96,85,74.99,73,90.02,80
M90.02,80C104.92,87,119.81,124,134.71,118
M134.71,118C148.88,112,163.05,84,177.21,61
M177.21,61C236.13,-35,295.05,47,353.97,44
M353.97,44C393.02,42,432.08,45,471.13,45
M471.13,45C487.95,44,504.77,40,521.59,44
M521.59,44C549.50,51,577.40,42,605.31,81
M605.31,81C619.37,101,633.42,112,647.48,131
M647.48,131C683.55,180,719.62,143,755.69,155"
    />
 <circle fill="#000" r="10" cx="44.93066732559262" cy="89.41418612147342" />
 <circle fill="#000" r="10" cx="90.02161948711908" cy="80.24062035152122" />
 <circle fill="#000" r="10" cx="134.70525418748645" cy="117.55827809375455" />
 <circle fill="#000" r="10" cx="177.21490415808677" cy="61.0334662599023" />
 <circle fill="#000" r="10" cx="353.96518985167495" cy="44.10435922938062" />
 <circle fill="#000" r="10" cx="471.1345605364494" cy="44.50140730583676" />
 <circle fill="#000" r="10" cx="521.588170640595" cy="44.091592387123804" />
 <circle fill="#000" r="10" cx="605.3117161112341" cy="81.2778713472452" />
 <circle fill="#000" r="10" cx="647.4786888857002" cy="130.76581812048386" />
 <circle fill="#000" r="10" cx="755.6887251916435" cy="154.6457160959622" />
</g></svg>